<svg xmlns="http://www.w3.org/2000/svg" width="28.786" height="22.337"><g data-name="Сгруппировать 38"><path d="M5.238 22.288v-1.482a.87.87 0 00-.939-.939.974.974 0 00-.84.42.864.864 0 00-.791-.42.8.8 0 00-.692.346v-.3h-.519v2.372h.519v-1.309c0-.42.223-.618.568-.618s.519.223.519.618v1.309h.519v-1.309a.547.547 0 01.568-.618c.346 0 .519.223.519.618v1.309zm7.685-2.372h-.844v-.717h-.519v.717h-.469v.469h.469v1.087c0 .544.223.865.816.865a1.38 1.38 0 00.642-.173l-.148-.445a.813.813 0 01-.445.124c-.247 0-.346-.148-.346-.4v-1.062h.84zm4.4-.05a.7.7 0 00-.617.346v-.3h-.519v2.372h.519V20.95c0-.4.173-.617.494-.617a1.451 1.451 0 01.322.049l.148-.494a1.638 1.638 0 00-.346-.025zm-6.646.247a1.7 1.7 0 00-.964-.247c-.593 0-.988.3-.988.766 0 .4.3.618.815.692l.247.024c.272.05.42.124.42.248 0 .173-.2.3-.544.3a1.365 1.365 0 01-.791-.247l-.247.4a1.743 1.743 0 001.013.3c.692 0 1.087-.321 1.087-.766 0-.42-.321-.643-.815-.717l-.247-.025c-.222-.025-.4-.074-.4-.222 0-.173.173-.271.445-.271a1.78 1.78 0 01.741.2zm13.788-.247a.7.7 0 00-.618.346v-.3h-.519v2.372h.519V20.95c0-.4.173-.617.494-.617a1.449 1.449 0 01.321.049l.148-.494a1.635 1.635 0 00-.346-.025zm-6.622 1.236a1.187 1.187 0 001.26 1.235 1.229 1.229 0 00.84-.272l-.247-.42a1 1 0 01-.618.222.7.7 0 01-.717-.766.729.729 0 01.717-.766 1 1 0 01.618.222l.247-.42a1.23 1.23 0 00-.84-.272 1.187 1.187 0 00-1.26 1.236zm4.793 0v-1.186h-.519v.3a.894.894 0 00-.741-.346 1.237 1.237 0 000 2.471.832.832 0 00.741-.346v.3h.519zm-1.9 0a.718.718 0 111.433 0 .718.718 0 11-1.433 0zm-6.2-1.236a1.236 1.236 0 00.025 2.471 1.511 1.511 0 00.964-.321l-.247-.371a1.179 1.179 0 01-.692.247.666.666 0 01-.717-.568h1.754v-.2a1.092 1.092 0 00-1.087-1.26zm0 .445a.578.578 0 01.593.568h-1.235a.626.626 0 01.643-.568zm12.874.791v-2.125h-.519v1.235a.894.894 0 00-.741-.346 1.237 1.237 0 000 2.471.832.832 0 00.741-.346v.3h.519zm-1.9 0a.718.718 0 111.433 0 .718.718 0 11-1.433 0zm-17.346 0v-1.186h-.519v.3a.893.893 0 00-.741-.346 1.237 1.237 0 000 2.471.831.831 0 00.741-.346v.3h.519zm-1.927 0a.718.718 0 111.433 0 .718.718 0 11-1.433 0z" fill="#fff"/><path fill="#ff5f00" d="M10.501 1.903h7.783v13.985h-7.783z"/><path d="M10.996 8.898a8.919 8.919 0 013.385-6.993 8.9 8.9 0 100 13.986 8.883 8.883 0 01-3.385-6.993z" fill="#eb001b"/><path d="M28.786 8.898a8.886 8.886 0 01-14.381 6.993 8.915 8.915 0 000-13.986 8.886 8.886 0 0114.381 6.993z" fill="#f79e1b"/></g></svg>