<svg xmlns="http://www.w3.org/2000/svg" width="100" height="24"><g data-name="Сгруппировать 171" transform="translate(-398 -473)"><rect data-name="Прямоугольник 405" width="47" height="24" rx="5" transform="translate(398 473)" fill="#fff"/><rect data-name="Прямоугольник 406" width="47" height="24" rx="5" transform="translate(451 473)" fill="#fff"/><path d="M411.068 480.363a2.118 2.118 0 01-1.7.8 2.4 2.4 0 01.609-1.756 2.531 2.531 0 011.684-.869 2.557 2.557 0 01-.593 1.825m.586.929c-.936-.054-1.737.532-2.182.532s-1.131-.505-1.871-.492a2.766 2.766 0 00-2.35 1.428c-1.01 1.737-.263 4.309.714 5.723.478.7 1.05 1.468 1.8 1.441.714-.027 1-.465 1.858-.465s1.118.465 1.872.451c.781-.013 1.273-.7 1.751-1.4a6.142 6.142 0 00.785-1.609 2.537 2.537 0 01-1.52-2.31 2.591 2.591 0 011.23-2.168 2.669 2.669 0 00-2.087-1.131m5.407-1.954v10.5h1.63v-3.59h2.256a3.332 3.332 0 003.508-3.461 3.293 3.293 0 00-3.455-3.449h-3.939zm1.63 1.374h1.879a1.958 1.958 0 012.221 2.082 1.965 1.965 0 01-2.229 2.087h-1.871zm8.74 9.2a2.7 2.7 0 002.4-1.34h.034v1.266h1.508v-5.226c0-1.515-1.212-2.491-3.077-2.491-1.731 0-3.01.99-3.057 2.35h1.472a1.431 1.431 0 011.542-1.071c1 0 1.555.465 1.555 1.32v.578l-2.034.121c-1.892.114-2.916.889-2.916 2.236a2.31 2.31 0 002.573 2.263zm.438-1.246c-.869 0-1.421-.417-1.421-1.057 0-.66.532-1.044 1.549-1.1l1.814-.113v.593a1.771 1.771 0 01-1.943 1.683zm5.521 4.02c1.589 0 2.337-.606 2.99-2.444l2.861-8.021h-1.656l-1.919 6.2h-.034l-1.921-6.2h-1.7l2.761 7.643-.148.465a1.3 1.3 0 01-1.374 1.091c-.128 0-.377-.013-.478-.027v1.259a4.488 4.488 0 00.618.04z"/><g data-name="Google_Pay_(GPay)_Logo"><path data-name="Контур 442" d="M473.712 485.926v3.878h-1.23v-9.578h3.263a2.951 2.951 0 012.113.829 2.769 2.769 0 010 4.054 2.942 2.942 0 01-2.113.815h-2.033zm0-4.52v3.343h2.063a1.656 1.656 0 001.217-2.836 1.6 1.6 0 00-1.217-.508h-2.063z" fill="#5f6368"/><path data-name="Контур 443" d="M481.576 483.037a3.051 3.051 0 012.154.729 2.585 2.585 0 01.789 2v4.039h-1.177v-.909h-.053a2.35 2.35 0 01-2.033 1.123 2.643 2.643 0 01-1.812-.642 2.05 2.05 0 01-.729-1.6 1.946 1.946 0 01.769-1.618 3.251 3.251 0 012.053-.6 3.633 3.633 0 011.805.4v-.281a1.4 1.4 0 00-.508-1.089 1.742 1.742 0 00-1.188-.449 1.883 1.883 0 00-1.632.87l-1.084-.682a3.016 3.016 0 012.646-1.291zm-1.592 4.761a.983.983 0 00.408.8 1.5 1.5 0 00.956.321 1.962 1.962 0 001.384-.575 1.8 1.8 0 00.611-1.35 2.513 2.513 0 00-1.6-.459 2.08 2.08 0 00-1.25.361 1.078 1.078 0 00-.509.902z" fill="#5f6368"/><path data-name="Контур 444" d="M491.273 483.251l-4.108 9.442h-1.267l1.525-3.3-2.7-6.138h1.337l1.952 4.707h.027l1.9-4.707z" fill="#5f6368"/><path data-name="Контур 445" d="M468.741 485.09a6.555 6.555 0 00-.095-1.119h-5.189v2.119h2.972a2.547 2.547 0 01-1.1 1.672v1.376h1.774a5.381 5.381 0 001.638-4.048z" fill="#4285f4"/><path data-name="Контур 446" d="M463.457 490.467a5.266 5.266 0 003.647-1.329l-1.774-1.376a3.337 3.337 0 01-4.959-1.744h-1.83v1.42a5.5 5.5 0 004.916 3.029z" fill="#34a853"/><path data-name="Контур 447" d="M460.368 486.018a3.3 3.3 0 010-2.106v-1.418h-1.827a5.5 5.5 0 000 4.941z" fill="#fbbc04"/><path data-name="Контур 448" d="M463.457 481.641a2.987 2.987 0 012.113.826l1.57-1.57a5.287 5.287 0 00-3.683-1.43 5.5 5.5 0 00-4.916 3.027l1.829 1.418a3.291 3.291 0 013.087-2.271z" fill="#ea4335"/></g></g></svg>