<svg xmlns="http://www.w3.org/2000/svg" width="40.135" height="12.962"><defs><clipPath id="a"><path data-name="Контур 95" d="M138.7 214.524l-3.375 8.533-1.365-7.255a1.512 1.512 0 00-1.5-1.278h-5.519l-.076.363a13.558 13.558 0 013.2 1.067 1.372 1.372 0 01.77 1.1l2.586 10.005h3.428l5.254-12.537zm4.8 0l-2.683 12.537h3.243l2.682-12.537zm18.594 3.387l.983 4.707h-2.69zm-.475-3.387a1.476 1.476 0 00-1.381.919l-4.867 11.617h3.405l.676-1.873h4.16l.392 1.873h3l-2.618-12.537zm-13.993 3.914c-.021 1.806 1.61 2.812 2.839 3.412 1.263.614 1.687 1.009 1.682 1.558-.009.841-1.008 1.212-1.941 1.227a6.785 6.785 0 01-3.331-.792l-.587 2.747a9.83 9.83 0 003.607.666c3.407 0 5.635-1.682 5.646-4.289.014-3.308-4.575-3.491-4.544-4.969.01-.449.438-.927 1.375-1.05a6.125 6.125 0 013.2.561l.57-2.658a8.721 8.721 0 00-3.034-.556c-3.205 0-5.462 1.7-5.48 4.144" transform="translate(-126.865 -214.295)" fill="#fff"/></clipPath></defs><g data-name="Сгруппировать 37"><g data-name="Сгруппировать 36" clip-path="url(#a)"><path data-name="Прямоугольник 53" fill="#fff" d="M0 0h40.135v12.962H0z"/></g></g></svg>